<svg width="131" height="131" viewBox="0 0 131 131" fill="none" xmlns="http://www.w3.org/2000/svg">
<path d="M119.054 77.4456C125.652 47.8683 107.023 18.5429 77.4455 11.9456C47.8682 5.34826 18.5428 23.9772 11.9455 53.5546C5.34819 83.1319 23.9772 112.457 53.5545 119.055C83.1318 125.652 112.457 107.023 119.054 77.4456Z" fill="#5E99A2"/>
<path d="M116.278 44.6418C108.069 64.6048 88.4284 78.6603 65.507 78.6603C42.5855 78.6603 22.9448 64.6048 14.7363 44.6418C22.9457 24.6788 42.5855 10.6242 65.507 10.6242C88.4284 10.6233 108.069 24.6788 116.278 44.6418Z" fill="#558B94"/>
<path d="M49.9808 89.7373L34.4547 97.8239V64.5079L49.9808 56.4213V89.7373Z" fill="#FDF8FA"/>
<path d="M49.9807 87.7966L36.2812 94.7513V65.6398L49.9807 58.3619V87.7966Z" fill="#8DC87F"/>
<path d="M65.5068 97.8239L49.9807 89.7373V56.4213L65.5068 64.5079V97.8239Z" fill="#FDF8FA"/>
<path d="M65.5069 95.8832L49.8503 87.7966V58.3619L65.5069 66.4486V95.8832Z" fill="#75B168"/>
<path d="M81.033 89.7373L96.5591 97.8239V64.5079L81.033 56.4213V89.7373Z" fill="#FDF8FA"/>
<path d="M81.033 87.7966L94.7325 94.7513V65.6398L81.033 58.3619V87.7966Z" fill="#75B168"/>
<path d="M65.5068 97.8239L81.0329 89.7373V56.4213L65.5068 64.5079V97.8239Z" fill="#FDF8FA"/>
<path d="M65.5068 95.8832L81.1634 87.7966V58.3619L65.5068 66.4486V95.8832Z" fill="#8DC87F"/>
<path d="M60.9144 33.1871C52.4649 33.5897 45.7564 40.3025 45.3598 48.7529C45.2337 51.4315 45.7521 53.9752 46.7725 56.2477C46.9203 56.5786 47.081 56.9018 47.2512 57.2197L47.3964 57.485L57.6786 76.3887C59.4188 79.5891 64.0138 79.5891 65.754 76.3887L76.0327 57.4945L76.1856 57.2137C76.3558 56.8983 76.514 56.5743 76.6617 56.2459C77.5819 54.1982 78.0926 51.93 78.0926 49.5409C78.0926 40.2334 70.3239 32.7387 60.9144 33.1871Z" fill="#E53935"/>
<path d="M74.9171 49.5417C74.9171 51.4677 74.505 53.296 73.7636 54.9463C73.6444 55.2107 73.5174 55.4717 73.38 55.7266L73.2564 55.953C71.0038 60.0019 66.6801 62.7418 61.7153 62.7418C56.7488 62.7418 52.4233 59.9984 50.1725 55.9452L50.0559 55.7309C49.9185 55.4743 49.7888 55.2133 49.6696 54.9472C48.9283 53.2969 48.5161 51.4677 48.5161 49.5426C48.5161 42.2526 54.4262 36.3434 61.7153 36.3434C69.007 36.3425 74.9171 42.2518 74.9171 49.5417Z" fill="#FFFFFC"/>
<path d="M70.0422 49.5418C70.0422 50.7558 69.7821 51.9093 69.3147 52.9505C69.2395 53.1172 69.1592 53.2814 69.0727 53.4421L68.995 53.5847C67.5745 56.138 64.8475 57.8661 61.7162 57.8661C58.5841 57.8661 55.8563 56.1354 54.4366 53.5795L54.3623 53.4447C54.2759 53.2832 54.1938 53.1181 54.1187 52.9505C53.6512 51.9093 53.3911 50.7567 53.3911 49.5418C53.3911 44.9442 57.1186 41.2176 61.7154 41.2176C66.3147 41.2176 70.0422 44.9442 70.0422 49.5418Z" fill="#F7CE48"/>
</svg>
