<svg width="131" height="131" viewBox="0 0 131 131" fill="none" xmlns="http://www.w3.org/2000/svg">
<path d="M118.773 77.7266C125.526 48.3045 107.149 18.9792 77.7266 12.2266C48.3045 5.47404 18.9792 23.8513 12.2266 53.2734C5.47403 82.6955 23.8513 112.021 53.2734 118.773C82.6955 125.526 112.021 107.149 118.773 77.7266Z" fill="#5E99A2"/>
<path d="M116.056 44.7201C107.878 64.6048 88.3157 78.6043 65.4841 78.6043C42.6525 78.6043 23.0889 64.6039 14.9126 44.7201C23.0889 24.8354 42.6525 10.8351 65.4841 10.8351C88.3157 10.8351 107.878 24.8354 116.056 44.7201Z" fill="#558B94"/>
<path d="M26.9197 76.9294H24.8731C23.5976 76.9294 22.5544 75.8863 22.5544 74.6108V74.2304C22.5544 72.9549 23.5976 71.9117 24.8731 71.9117H26.9197C28.1952 71.9117 29.2383 72.9549 29.2383 74.2304V74.6108C29.2383 75.8854 28.1952 76.9294 26.9197 76.9294Z" fill="#AD4B26"/>
<path d="M107.38 73.1425V77.3692C107.38 78.7411 106.268 79.8531 104.896 79.8531H26.82C25.6478 79.8531 24.6968 78.9029 24.6968 77.7298V67.8348C24.6968 62.4445 29.0664 58.0758 34.4567 58.0758C36.1909 58.0758 37.7237 56.9492 38.2418 55.2941L41.7129 44.1976C42.274 42.4109 43.9274 41.1974 45.7967 41.1974H73.9394C75.8088 41.1974 77.463 42.4109 78.0233 44.1976L81.601 55.6358C82.0761 57.1566 83.2931 58.3357 84.8268 58.7635L99.5794 62.8697C102.311 63.6305 104.541 65.4138 105.907 67.7367C106.848 69.3341 107.38 71.1905 107.38 73.1425Z" fill="white"/>
<path d="M58.9966 43.0039H46.06C45.1219 43.0039 44.2931 43.7441 44.0134 44.8319L40.9382 56.7736C40.7566 57.4776 41.1904 58.1937 41.7972 58.1937H58.9966V43.0039Z" fill="#45B8E7"/>
<path d="M79.5086 56.7728L75.7725 44.8311C75.4325 43.7432 74.4247 43.0031 73.286 43.0031H61.1353V58.1929H78.4655C79.2031 58.1929 79.7289 57.4768 79.5086 56.7728Z" fill="#45B8E7"/>
<path d="M107.379 73.1424V73.5478H105.073C103.476 73.5478 102.167 72.2422 102.167 70.6422C102.167 69.8435 102.493 69.118 103.023 68.5887C103.549 68.0628 104.274 67.7366 105.073 67.7366H105.906C106.847 69.334 107.379 71.1905 107.379 73.1424Z" fill="#F7CE48"/>
<path d="M107.171 78.5655H24.4806C23.7981 78.5655 23.2395 79.124 23.2395 79.8066C23.2395 80.4891 23.7981 81.0476 24.4806 81.0476H107.171C107.854 81.0476 108.412 80.4891 108.412 79.8066C108.412 79.124 107.854 78.5655 107.171 78.5655Z" fill="#AD4B26"/>
<path d="M40.1738 89.7876C45.132 89.7876 49.1514 85.7682 49.1514 80.8101C49.1514 75.8519 45.132 71.8325 40.1738 71.8325C35.2157 71.8325 31.1963 75.8519 31.1963 80.8101C31.1963 85.7682 35.2157 89.7876 40.1738 89.7876Z" fill="#69462C"/>
<path d="M40.1738 85.3681C42.6911 85.3681 44.7318 83.3274 44.7318 80.8101C44.7318 78.2927 42.6911 76.252 40.1738 76.252C37.6564 76.252 35.6157 78.2927 35.6157 80.8101C35.6157 83.3274 37.6564 85.3681 40.1738 85.3681Z" fill="#EA7036"/>
<path d="M89.7617 89.7876C94.7199 89.7876 98.7393 85.7682 98.7393 80.8101C98.7393 75.8519 94.7199 71.8325 89.7617 71.8325C84.8036 71.8325 80.7842 75.8519 80.7842 80.8101C80.7842 85.7682 84.8036 89.7876 89.7617 89.7876Z" fill="#69462C"/>
<path d="M94.319 80.8101C94.319 83.3275 92.2784 85.3681 89.7609 85.3681C87.2435 85.3681 85.2029 83.3275 85.2029 80.8101C85.2029 78.2926 87.2435 76.252 89.7609 76.252C92.2784 76.2529 94.319 78.2935 94.319 80.8101Z" fill="#EA7036"/>
</svg>
