<svg width="131" height="131" viewBox="0 0 131 131" fill="none" xmlns="http://www.w3.org/2000/svg">
<path d="M118.773 77.7266C125.526 48.3045 107.149 18.9792 77.7266 12.2266C48.3045 5.47404 18.9792 23.8513 12.2266 53.2734C5.47403 82.6955 23.8513 112.021 53.2734 118.773C82.6955 125.526 112.021 107.149 118.773 77.7266Z" fill="#5E99A2"/>
<path d="M116.036 44.7178C107.86 64.6025 88.2962 78.602 65.4646 78.602C42.633 78.602 23.0693 64.6016 14.8931 44.7178C23.0693 24.8331 42.633 10.8328 65.4646 10.8328C88.2962 10.8336 107.86 24.8331 116.036 44.7178Z" fill="#558B94"/>
<path d="M46.9504 50.0203V43.4096C46.9504 42.0007 47.1742 40.6245 47.9074 39.4024C48.0882 39.1011 48.2939 38.9117 48.4841 38.7904C48.6441 38.688 48.7844 38.7397 48.6158 38.7397H82.1789C82.11 38.75 82.3407 38.7878 82.3562 38.7577C82.4758 38.8386 82.6523 38.9557 82.6032 38.904C82.9174 39.1863 83.0731 39.4721 83.2943 39.8809C83.8331 40.8749 83.9785 42.1195 83.9785 43.2314V50.0203H88.1769V43.3261C88.1769 39.8318 86.6982 35.0371 82.6893 34.5724C82.5714 34.5534 82.45 34.5414 82.3192 34.5414H51.2037C49.5057 34.5414 47.6819 34.3236 46.1801 35.2832C43.3296 37.1035 42.7512 40.8844 42.7512 43.994V50.0212L46.9504 50.0203Z" fill="#8DC87F"/>
<path d="M94.9512 45.155H35.9779C32.3622 45.155 29.4033 48.114 29.4033 51.7296V89.8861C29.4033 93.5026 32.3622 96.4607 35.9779 96.4607H94.9512C98.5668 96.4607 101.526 93.5026 101.526 89.8861V51.7296C101.526 48.114 98.5677 45.155 94.9512 45.155Z" fill="#F7CE48"/>
<path d="M89.5016 45.155H83.8333V96.4607H89.5016V45.155Z" fill="#EA7036"/>
<path d="M47.0958 45.155H41.4275V96.4607H47.0958V45.155Z" fill="#EA7036"/>
<path d="M40.4834 49.3542V57.0528H48.0409V49.3542H40.4834ZM46.5984 55.5836H41.9259V50.8233H46.5984V55.5836Z" fill="white"/>
<path d="M82.8889 49.3542V57.0528H90.4464V49.3542H82.8889ZM89.0039 55.5836H84.3314V50.8233H89.0039V55.5836Z" fill="white"/>
</svg>
