<svg width="24" height="22" viewBox="0 0 24 22" fill="none" xmlns="http://www.w3.org/2000/svg">
<path d="M23.7067 11.7149L14.707 20.8091C14.5194 20.9987 14.2649 21.1053 13.9995 21.1053C13.7342 21.1053 13.4797 20.9987 13.2921 20.8091C13.1044 20.6195 12.999 20.3624 12.999 20.0942C12.999 19.8261 13.1044 19.5689 13.2921 19.3793L20.5856 12.0105H0.999967C0.734759 12.0105 0.480414 11.904 0.292884 11.7145C0.105354 11.525 0 11.268 0 11C0 10.732 0.105354 10.475 0.292884 10.2855C0.480414 10.096 0.734759 9.98952 0.999967 9.98952H20.5856L13.2921 2.62067C13.1044 2.43106 12.999 2.1739 12.999 1.90576C12.999 1.63762 13.1044 1.38046 13.2921 1.19085C13.4797 1.00125 13.7342 0.89473 13.9995 0.89473C14.2649 0.89473 14.5194 1.00125 14.707 1.19085L23.7067 10.2851C23.7997 10.3789 23.8735 10.4904 23.9238 10.613C23.9741 10.7357 24 10.8672 24 11C24 11.1328 23.9741 11.2643 23.9238 11.3869C23.8735 11.5096 23.7997 11.6211 23.7067 11.7149Z" fill="white"/>
</svg>
