<svg width="51" height="33" viewBox="0 0 51 33" fill="none" xmlns="http://www.w3.org/2000/svg">
<path d="M1.81934 1.98611H49.1804V31.0139H1.81934V1.98611Z" fill="#1E50A0"/>
<path d="M28.5557 11.0428V13.4444H36.3328L49.1807 5.56952V1.98611H43.3339L28.5557 11.0428Z" fill="white"/>
<path d="M49.1807 1.98611H46.2573L28.5557 12.8356V13.4444H31.2155L49.1807 2.43375V1.98611Z" fill="#D22F27"/>
<path d="M43.3346 31.0139H49.1807V27.4297L36.3336 19.5555H28.5557V21.9564L43.3346 31.0139Z" fill="white"/>
<path d="M49.1806 31.0139V29.221L33.4102 19.5555H29.7534L48.4488 31.0139H49.1806Z" fill="#D22F27"/>
<path d="M22.4443 21.9572V19.5555H14.6672L1.81934 27.4305V31.0139H7.66614L22.4443 21.9572Z" fill="white"/>
<path d="M1.81934 31.0139H4.74274L22.4443 20.1644V19.5555H19.7845L1.81934 30.5662V31.0139Z" fill="#D22F27"/>
<path d="M7.66538 1.98611H1.81934V5.57028L14.6664 13.4444H22.4443V11.0435L7.66538 1.98611Z" fill="white"/>
<path d="M1.81934 1.98611V3.77896L17.5906 13.4444H21.2466L2.55114 1.98611H1.81934Z" fill="#D22F27"/>
<path d="M1.81934 12.6805H49.1804V20.3194H1.81934V12.6805Z" fill="white"/>
<path d="M21.6807 1.98611H29.3196V31.0139H21.6807V1.98611Z" fill="white"/>
<path d="M1.81934 14.2083H49.1804V18.7917H1.81934V14.2083Z" fill="#D22F27"/>
<path d="M23.2083 1.98611H27.7916V31.0139H23.2083V1.98611Z" fill="#D22F27"/>
<path d="M1.81934 1.98611H49.1804V31.0139H1.81934V1.98611Z" stroke="black" stroke-width="2" stroke-linecap="round" stroke-linejoin="round"/>
</svg>
